<svg height="20" viewBox="0 0 11.707 20" width="11.707" xmlns="http://www.w3.org/2000/svg"><path d="m7.7 0a7.2 7.2 0 0 0 -6.2 3.9 1.381 1.381 0 0 0 -.3.4c0 .2-.1.3-.2.5a14.7 14.7 0 0 0 -.8 2.5 14.97 14.97 0 0 0 -.2 2.2c0 5.2 3.4 9.5 7.7 9.5h.4a4.15 4.15 0 0 0 1.6-.3c.2 0 .3-.1.5-.2.2 0 .3-.1.5-.2.1-.1.3-.1.4-.2h.1v-17.1a6.685 6.685 0 0 0 -3.5-1z" fill="#fff" transform="translate(.5 .5)"/><path d="m7.775-.5a8.026 8.026 0 0 0 -6.761 4.2 2.182 2.182 0 0 1 -.3.5c0 .2-.1.3-.2.5a11.149 11.149 0 0 0 -.814 2.6 14.846 14.846 0 0 0 -.2 2.2c0 4.4 2.422 8.2 5.752 9.5a7.083 7.083 0 0 0 2.523.5 3.817 3.817 0 0 0 1.11-.1 8.469 8.469 0 0 0 1.515-.4c.2-.1.3-.1.5-.2a.353.353 0 0 0 .2-.1h.1v-1.2h-.1a.1.1 0 0 0 -.1.1.768.768 0 0 1 -.4.2c-.2.1-.3.2-.5.2-.1 0-.1.1-.2.1a6.577 6.577 0 0 1 -2.018.4h-.1c-4.037 0-7.266-4-7.266-9a17.694 17.694 0 0 1 .2-2.3 8.9 8.9 0 0 1 .807-2.3c.1-.2.1-.3.2-.5a1.382 1.382 0 0 0 .3-.4 6.949 6.949 0 0 1 5.752-3.5 6.08 6.08 0 0 1 3.431 1.1v-1.2a7.035 7.035 0 0 0 -3.431-.9z" fill="#dbdbdb" transform="translate(.5 .5)"/><path d="m11.1 2.6v14.1h-.1a4.331 4.331 0 0 1 -.5.1h-1.1a4.146 4.146 0 0 1 -1.6-.3 7.2 7.2 0 0 1 -5.2-6.9 6.722 6.722 0 0 1 .4-2.4l.6-1.2c.1-.1.2-.3.3-.4.1-.2.1-.3.3-.4a6.921 6.921 0 0 1 5.6-2.7 2.979 2.979 0 0 1 1.3.1z" fill="#dd0a56" transform="translate(.606 .5)"/></svg>