<svg height="39.231" viewBox="0 0 36.611 39.231" width="36.611" xmlns="http://www.w3.org/2000/svg"><path d="m2.392 34.432a6.958 6.958 0 0 1 -.7-9.8 6.675 6.675 0 0 1 5-2.4 8.03 8.03 0 0 1 1.5-2.9 7 7 0 0 1 4.9-2.4 6.867 6.867 0 0 1 4.9-7.3 6.973 6.973 0 0 1 12.9-5.3 7.18 7.18 0 0 1 .2 4.8 5.675 5.675 0 0 1 1.8 1.2 8.451 8.451 0 0 1 .9 12l-.9.9a8.6 8.6 0 0 1 -5.3 10.9 8.4 8.4 0 0 1 -5.2.1 8.636 8.636 0 0 1 -1 1.6 6.958 6.958 0 0 1 -9.8.7 4.071 4.071 0 0 1 -1.2-1.4 6.923 6.923 0 0 1 -8-.7z" fill="#fff" transform="translate(.618 .599)"/><path d="m36.411 14.531c0-.1 0-.1-.1-.2 0-.1-.1-.2-.1-.3-.1-.3-.2-.5-.3-.8a8.762 8.762 0 0 0 -3.7-3.8 7.911 7.911 0 0 0 -.3-4.8l-.3-.6a7.211 7.211 0 0 0 -2.1-2.5 6.5 6.5 0 0 0 -2.2-1.1c-.2-.1-.3-.1-.5-.2-.2 0-.3-.1-.5-.1a6.568 6.568 0 0 0 -3.4.2c-.2 0-.3.1-.5.2-.1 0-.2.1-.3.1a.349.349 0 0 0 -.2.1 7.406 7.406 0 0 0 -3.7 3.7c-.1.2-.2.5-.3.7 0 .1-.1.2-.1.4 0 .2-.1.3-.1.4a7.4 7.4 0 0 0 .2 3.9 7.1 7.1 0 0 0 -4.4 4.7c-.1.4-.2.9-.3 1.3 0 .4-.1.7-.1 1.1-.3 0-.5.1-.8.1a7.956 7.956 0 0 0 -2.5 1.1 9.337 9.337 0 0 0 -1.5 1.3 7.2 7.2 0 0 0 -1.5 2.7 6.971 6.971 0 0 0 -3.4 1.2 7 7 0 0 0 -1.6 1.4 7.545 7.545 0 0 0 -1.8 5.4.9.9 0 0 0 .1.5.9.9 0 0 0 .1.5 6.6 6.6 0 0 0 1.1 2.6 5.017 5.017 0 0 0 1.4 1.5 7.684 7.684 0 0 0 8.1 1.1 4.74 4.74 0 0 0 1 1l.1.1a7.994 7.994 0 0 0 4.1 1.8h1.4a7.677 7.677 0 0 0 5.1-2.6 10.144 10.144 0 0 0 .9-1.3 8.9 8.9 0 0 0 5.1-.3 9.106 9.106 0 0 0 5.7-11.2l.7-.7a7.847 7.847 0 0 0 1.6-2.8c0-.1.1-.1.1-.2l-.2-5.6zm-2.5 8.1a6.034 6.034 0 0 1 -.8.8l-.3.2.1.3a7.964 7.964 0 0 1 -5 10.2 8.2 8.2 0 0 1 -4.9.1h-.3l-.2.4a13.028 13.028 0 0 1 -1 1.5 6.264 6.264 0 0 1 -4.4 2.2 6.15 6.15 0 0 1 -1.4-.1 6.2 6.2 0 0 1 -3.2-1.4l-.1-.1a11.985 11.985 0 0 1 -1.1-1.2l-.3-.4-.4.2a6.806 6.806 0 0 1 -3.1.8 6.145 6.145 0 0 1 -4.2-1.6 5.837 5.837 0 0 1 -1.8-2.6 1.445 1.445 0 0 1 -.2-.7c0-.2-.1-.3-.1-.5a.9.9 0 0 0 -.1-.5v-.1a6.652 6.652 0 0 1 1.5-4.7c.1-.1.1-.2.2-.2a6.464 6.464 0 0 1 4.4-2h.4l.1-.4a6.979 6.979 0 0 1 1.4-2.7 6.179 6.179 0 0 1 4-2.2h1.1v-.6a6.508 6.508 0 0 1 4.5-6.8l.5-.2-.2-.5a6.623 6.623 0 0 1 -.1-4.6 6.15 6.15 0 0 1 3.6-3.8h.1a.6.6 0 0 1 .4-.1.9.9 0 0 1 .5-.1 4.887 4.887 0 0 1 2.4-.1 4.331 4.331 0 0 0 .5.1c.2 0 .3.1.5.1a5.291 5.291 0 0 1 2.1 1.1 6.73 6.73 0 0 1 1.4 1.5 7.459 7.459 0 0 1 .7 1.2 6.928 6.928 0 0 1 .2 4.5l-.1.4.4.2a9.908 9.908 0 0 1 1.7 1.1l.3.3a10.1 10.1 0 0 1 1.3 1.6c.1.2.3.5.4.7s.2.3.2.5c.1.1.1.3.2.5a.9.9 0 0 1 .1.5c.1.3.1.7.2 1a8.684 8.684 0 0 1 -2.1 6.2zm-19.7-4.7h-.4a.749.749 0 0 0 -.5.1l-.1.1v.1h.6zm0 0h-.4a.749.749 0 0 0 -.5.1l-.1.1v.1h.6zm0 0h-.4a.749.749 0 0 0 -.5.1l-.1.1v.1h.6zm0 0h-.4a.749.749 0 0 0 -.5.1l-.1.1v.1h.6zm0 0h-.4a.749.749 0 0 0 -.5.1l-.1.1v.1h.6zm0 0h-.4a.749.749 0 0 0 -.5.1l-.1.1v.1h.6zm0 0h-.4a.749.749 0 0 0 -.5.1l-.1.1v.1h.6zm0 0h-.4a.749.749 0 0 0 -.5.1l-.1.1v.1h.6zm0 0h-.4a.749.749 0 0 0 -.5.1l-.1.1v.1h.6zm0 0h-.4a.749.749 0 0 0 -.5.1l-.1.1v.1h.6zm0 0h-.4a.749.749 0 0 0 -.5.1l-.1.1v.1h.6zm0 0h-.4a.749.749 0 0 0 -.5.1l-.1.1v.1h.6zm0 0h-.4a.749.749 0 0 0 -.5.1l-.1.1v.1h.6zm0 0h-.4a.749.749 0 0 0 -.5.1l-.1.1v.1h.6zm0 0h-.4a.749.749 0 0 0 -.5.1l-.1.1v.1h.6zm0 0h-.4a.749.749 0 0 0 -.5.1l-.1.1v.1h.6zm0 0h-.4a.749.749 0 0 0 -.5.1l-.1.1v.1h.6zm0 0h-.4a.749.749 0 0 0 -.5.1l-.1.1v.1h.6zm0 0h-.4a.749.749 0 0 0 -.5.1l-.1.1v.1h.6z" fill="#dbdbdb"/></svg>