<svg height="44.643" viewBox="0 0 38.968 44.643" width="38.968" xmlns="http://www.w3.org/2000/svg"><path d="m30.8 3.3c-1.5-3.3-7.6-3.3-8.2-3.3-3 0-5.2 1.1-8.1 2.6a27.061 27.061 0 0 0 -10.4 8.6 22.953 22.953 0 0 0 -3.9 9.4c-.9 4.9 1.6 7.1 1 11.4a2.492 2.492 0 0 0 .3 1.7c.9 1.3 4.1 1.2 4.7 0 .2-.3.1-.4.1-1.2 0-1.4.4-3.4 1.6-4.3.6-.4 2.6 2.2 2.8 2.2 3.3-.4 22.1-17.1 21.7-24.9 0-.5-1.4-1.8-1.6-2.2z" fill="#dd0a56" transform="translate(0 3.543)"/><ellipse cx="17.1" cy="10.2" fill="#c90541" rx="17.1" ry="10.2" transform="matrix(.65319597 -.7571889 .7571889 .65319597 1.181 25.896)"/><g transform="translate(.198 34.643)"><circle cx="5" cy="5" fill="#fff" r="4.5"/><path d="m6.1.1a4.1 4.1 0 0 0 -1.1-.1 5.068 5.068 0 0 0 -4 2 4.533 4.533 0 0 0 -1 3 5 5 0 1 0 10 0 4.845 4.845 0 0 0 -3.9-4.9zm-1.1 9a4.012 4.012 0 0 1 -4-4 4.282 4.282 0 0 1 .6-2.2 4.038 4.038 0 0 1 3.4-1.8 3.083 3.083 0 0 1 1 .1 4.079 4.079 0 0 1 3 3.9 3.888 3.888 0 0 1 -4 4z" fill="#dbdbdb"/></g></svg>