<svg enable-background="new 0 0 512 512" height="512" viewBox="0 0 512 512" width="512" xmlns="http://www.w3.org/2000/svg"><path d="m267.314 256 80.894-80.894c3.124-3.124 3.124-8.189 0-11.313-3.125-3.124-8.189-3.124-11.314 0l-80.894 80.893-80.894-80.894c-3.124-3.124-8.189-3.124-11.313 0-3.125 3.124-3.125 8.189 0 11.313l80.893 80.895-80.894 80.894c-3.125 3.125-3.125 8.189 0 11.314 1.562 1.562 3.609 2.343 5.657 2.343s4.095-.781 5.657-2.343l80.894-80.894 80.894 80.894c1.563 1.562 3.609 2.343 5.657 2.343s4.095-.781 5.657-2.343c3.124-3.125 3.124-8.189 0-11.314z"/><path d="m256 59c26.602 0 52.399 5.207 76.677 15.475 23.456 9.921 44.526 24.128 62.623 42.225 18.098 18.098 32.304 39.167 42.226 62.624 10.268 24.277 15.474 50.074 15.474 76.676s-5.206 52.399-15.475 76.677c-9.922 23.456-24.128 44.526-42.226 62.623-18.097 18.098-39.167 32.304-62.623 42.226-24.277 10.268-50.074 15.474-76.676 15.474s-52.399-5.206-76.676-15.475c-23.457-9.922-44.526-24.128-62.624-42.226-18.097-18.097-32.304-39.167-42.225-62.623-10.268-24.277-15.475-50.074-15.475-76.676s5.207-52.399 15.475-76.676c9.921-23.457 24.128-44.526 42.225-62.624 18.098-18.097 39.167-32.304 62.624-42.225 24.277-10.268 50.074-15.475 76.676-15.475m0-16c-117.637 0-213 95.363-213 213s95.363 213 213 213 213-95.363 213-213-95.363-213-213-213z"/></svg>