<svg height="38.641" viewBox="0 0 36.002 38.641" width="36.002" xmlns="http://www.w3.org/2000/svg"><path d="m24.7 25.1c1.6.4 5-2.5 5-2.5 2.6-2.2 3.9-3.3 4.6-5.1.8-2.1.5-3.9.1-6.7-.4-2.6-1-3.3-1.4-3.7-1.1-.9-2-.5-3.5-1-3.4-1-3.5-4.5-6.2-5.7-2.6-1.2-5.6.5-8.3 1.9-2.1 1.1-2.4 1.8-10.7 11.3-2 2.3-3.6 4.1-4.1 6.9a7.529 7.529 0 0 0 .6 5.1 11.167 11.167 0 0 0 2.5 2.8c1.8 1.5 2.1 1 3.1 2.1a9.621 9.621 0 0 1 2 4.2c.3 1.1.1 1.3.4 1.7 1 1.6 4 1.3 4.7 1.2a10.754 10.754 0 0 0 8.2-5.1 26.194 26.194 0 0 0 2-5.3 7.491 7.491 0 0 0 .4-1.6.52.52 0 0 1 .2-.4c.1-.1.2-.1.4-.1z" fill="#fff" transform="translate(.714 .441)"/><path d="m34.9 10.7a9.392 9.392 0 0 0 -.7-2.6c-.1-.2-.2-.3-.2-.5-.1-.2-.2-.3-.3-.5s-.3-.3-.4-.4a3.582 3.582 0 0 0 -2.3-.8 7.844 7.844 0 0 1 -1.4-.2 5.6 5.6 0 0 1 -3.3-2.9 6.557 6.557 0 0 0 -2.9-2.8 2.935 2.935 0 0 0 -1-.3 4.331 4.331 0 0 1 -.5-.1c-2.4-.3-4.9 1.1-7.3 2.4-1.8 1-2.3 1.6-7.4 7.4-1 1.1-2.1 2.4-3.5 4-2 2.3-3.7 4.2-4.2 7.1a6.988 6.988 0 0 0 .1 3.8v.1a8.8 8.8 0 0 0 .5 1.5 12.767 12.767 0 0 0 2.9 2.8 12.889 12.889 0 0 0 1.9 1.3 2.564 2.564 0 0 1 1.1.8 8.732 8.732 0 0 1 1.9 4 6.374 6.374 0 0 0 .2.9 1.929 1.929 0 0 0 .3 1 3.877 3.877 0 0 0 2.6 1.4.9.9 0 0 1 .5.1h.8a4.869 4.869 0 0 0 1.2-.1 11.428 11.428 0 0 0 8.6-5.3 21.312 21.312 0 0 0 2-5.5.367.367 0 0 1 .1-.3c0-.1.1-.2.1-.3a2.92 2.92 0 0 0 .2-.9 3.454 3.454 0 0 0 1.7-.2 15.7 15.7 0 0 0 3.8-2.4c2.7-2.2 4-3.4 4.7-5.3.9-2.4.6-4.3.2-7.2zm-9.4 13.9c-.2 0-.3.1-.5.1h-.4a.749.749 0 0 0 -.5.1l-.1.1v.1a1.08 1.08 0 0 0 -.3.7 1.854 1.854 0 0 1 -.2.7 2.353 2.353 0 0 0 -.2.8 23.075 23.075 0 0 1 -1.9 5.2 10.816 10.816 0 0 1 -7.8 4.9c-.3 0-.6.1-.9.1h-1.1a.749.749 0 0 1 -.5-.1 2.284 2.284 0 0 1 -1.6-.9 4.169 4.169 0 0 1 -.2-.6 8.376 8.376 0 0 0 -.2-1 10.514 10.514 0 0 0 -2.2-4.5 4.617 4.617 0 0 0 -1.4-1 8.441 8.441 0 0 1 -1.8-1.1 8.483 8.483 0 0 1 -2.4-2.6c-.2-.4-.2-.6-.3-.7v-.1a7.209 7.209 0 0 1 -.3-4.1c.5-2.7 1.9-4.3 4-6.7 1.3-1.6 2.5-2.9 3.5-4 4.9-5.7 5.4-6.3 7.1-7.2 2-1.1 4.2-2.3 6.1-2.3a2.769 2.769 0 0 1 .9.1 2.353 2.353 0 0 1 .8.2h.1a5.8 5.8 0 0 1 2.4 2.5 6.552 6.552 0 0 0 3.9 3.3 13.121 13.121 0 0 0 1.5.3 3 3 0 0 1 1.8.6 1.38 1.38 0 0 1 .3.4c.1.1.1.3.2.4a12.989 12.989 0 0 1 .6 2.5c.4 2.8.7 4.5-.1 6.4-.7 1.7-1.9 2.8-4.5 4.9a9.639 9.639 0 0 1 -3.8 2.5z" fill="#dbdbdb" transform="translate(.714 .441)"/><path d="m4.1 25.7a6.5 6.5 0 0 0 2.2 1.1 2.977 2.977 0 0 0 2.2-.6c.3-.2.5-.3.8-.5 1.8-1.3 2.5-2.7 3.7-4.6.1-.2.3-.4.4-.6a47.23 47.23 0 0 1 5-5.9c.4-.4.9-.9 1.7-1.6.6-.5 1.3-1.2 2.1-2 1.5-1.5 2.5-2.3 2.9-3.5a1.445 1.445 0 0 0 .2-.7 4.164 4.164 0 0 0 -.2-2.9c-.3-.6-.6-.5-2-1.4-1.7-1.2-1.7-1.6-2.9-2.1a4.414 4.414 0 0 0 -5.3.8c-4.7 4.3-10.8 12.6-13.1 14.7a6.47 6.47 0 0 0 -.8.9 5.489 5.489 0 0 0 -1 3.7 5.847 5.847 0 0 0 1.2 2.8 11.261 11.261 0 0 0 2.9 2.4z" fill="#f9d1c0" transform="translate(4.32 4.832)"/><path d="m9.1 12.8c.6.1 1.2.6 1.1 1.1-.1.7-1.4.6-2.9 1.8a7.406 7.406 0 0 0 -2.2 3.3c-.7 2.3-.2 4.1-.5 4.2s-1.3-2-1-4.3a6.941 6.941 0 0 1 1.2-3.1 17.136 17.136 0 0 1 2.5-2.2 3.554 3.554 0 0 1 1.8-.8z" fill="#fff" transform="matrix(.94551858 -.32556815 .32556815 .94551858 -1.167 8.052)"/><path d="m10.9 9.8c.1.6.7 1.2 1.2 1.1.7-.1.6-1.4 1.8-3a8.144 8.144 0 0 1 3.4-2.4c2.4-.8 4.3-.4 4.4-.7s-2.2-1.1-4.6-.8a7.138 7.138 0 0 0 -3.2 1.4 18.628 18.628 0 0 0 -2.3 2.6c-.6.9-.8 1.3-.7 1.8z" fill="#fff" transform="matrix(.951 .309 -.309 .951 7.41 .162)"/><circle cx="21.203" cy="21.703" fill="#e2b7b0" r="3.7"/><path d="m.9 6.2c.6-.5 1.3-1.2 2.1-2a10.794 10.794 0 0 0 3-3.4 3.588 3.588 0 0 0 -5.2.7 3.759 3.759 0 0 0 .1 4.7z" fill="#f7bfbf" transform="translate(23.481 11.672)"/><path d="m1.3 6.5a3.039 3.039 0 0 0 .7-.5c1.8-1.3 2.5-2.7 3.7-4.6.2-.2.3-.4.4-.5a3.582 3.582 0 0 0 -5.2.5 3.464 3.464 0 0 0 -.9 2.6 3.436 3.436 0 0 0 1.3 2.5z" fill="#f7bfbf" transform="translate(11.616 24.5)"/><path d="m3.7 3.4a1.238 1.238 0 0 0 -.1-1.7l-1.6-1.4a1.244 1.244 0 0 0 -1.7.1 1.238 1.238 0 0 0 .1 1.7l1.6 1.4a1.238 1.238 0 0 0 1.7-.1z" fill="#3f3f3f" transform="translate(18.395 12.735)"/><circle cx="20.295" cy="14.635" fill="#fff" r=".5"/><path d="m3.7 3.4a1.238 1.238 0 0 0 -.1-1.7l-1.6-1.4a1.244 1.244 0 0 0 -1.7.1 1.238 1.238 0 0 0 .1 1.7l1.6 1.4a1.238 1.238 0 0 0 1.7-.1z" fill="#3f3f3f" transform="translate(11.918 20.246)"/><circle cx="13.818" cy="22.046" fill="#fff" r=".5"/></svg>