<svg height="70.1" viewBox="0 0 35.2 70.1" width="35.2" xmlns="http://www.w3.org/2000/svg"><g transform="translate(-22.2 -19.3)"><path d="m22.2 52.8c0 18.5 11.733 33.5 26.174 33.5a20.261 20.261 0 0 0 9.026-2.1v-62.8a20.261 20.261 0 0 0 -9.026-2.1c-14.441.1-26.174 15-26.174 33.5z" fill="#dd0a56"/><path d="m57.4 32.4v37.2h-.1a4.179 4.179 0 0 1 -1 .4c-.2.1-.4.1-.6.2s-.4.1-.6.2a10.323 10.323 0 0 1 -3 .4 14.781 14.781 0 0 1 -4.2-.7 1.421 1.421 0 0 0 -.6-.2l-.6-.3c-4.9-2.3-8.7-7.8-9.8-14.5a18658170334941.36 18658170334941.36 0 0 1 -.2-1c-.1-1-.2-2-.2-3 0-10.7 6.7-19.5 15-19.8h.5a11 11 0 0 1 3.1.4 5.775 5.775 0 0 1 1.7.6.661.661 0 0 1 .6.1z" fill="#c90541"/><path d="m55.1 31.4a.945.945 0 0 0 1-1v-2.3a1 1 0 0 0 -1-1 1 1 0 0 0 -1 1v2.3a1 1 0 0 0 1 1z" fill="#dd0a56"/></g><path d="m57.4 71.7v14.2a9.1 9.1 0 0 1 -2.1 1.8 8.107 8.107 0 0 1 -4.1 1.1 8.564 8.564 0 0 1 -6.2-2.8 10.5 10.5 0 0 1 -2.7-7.2 10.144 10.144 0 0 1 4.9-9 7.561 7.561 0 0 1 3.9-1 8.3 8.3 0 0 1 4.6 1.4 7.006 7.006 0 0 1 1 .8 4.62 4.62 0 0 1 .7.7z" fill="#fff" transform="translate(-22.2 -19.3)"/><path d="m57.106 71a9.84 9.84 0 0 0 -1.079-1 8.29 8.29 0 0 0 -5-1.8 8.735 8.735 0 0 0 -4.415 1.3 10.971 10.971 0 0 0 -4.812 9.3 11.613 11.613 0 0 0 2.355 7.1 8.793 8.793 0 0 0 6.77 3.5 8.573 8.573 0 0 0 5.1-1.8c.392-.3.687-.6 1.079-.9v-1.5a9.774 9.774 0 0 1 -3.14 2.6 7.486 7.486 0 0 1 -2.943.7 7.282 7.282 0 0 1 -5.2-2.2 10.451 10.451 0 0 1 -2.942-7.3 9.923 9.923 0 0 1 4.906-8.8 7.061 7.061 0 0 1 3.238-.8 7.146 7.146 0 0 1 3.826 1.1c.2.1.392.3.589.4a11.983 11.983 0 0 1 1.57 1.6.1.1 0 0 0 .1.1v-1.3c.1 0 .2.1.294.1a1.378 1.378 0 0 0 -.296-.4z" fill="#dbdbdb" transform="translate(-22.2 -19.3)"/><path d="m57.4 71.2v16.2c-.3.1-.7.2-1.1.3a3.75 3.75 0 0 1 -1.1.1h-1a8.5 8.5 0 0 1 -4.2-1.5 8.536 8.536 0 0 1 4.9-15.5h.9a4.4 4.4 0 0 1 1 .2c.1.1.3.1.6.2z" fill="#dd0a56" transform="translate(-22.2 -19.3)"/></svg>